<svg width="15" height="16" viewBox="0 0 15 16" fill="none" xmlns="http://www.w3.org/2000/svg">
<path d="M8.16137 12.5591C8.34498 12.3755 8.43678 12.155 8.43678 11.8977C8.43678 11.6403 8.34498 11.4202 8.16137 11.2371C7.97776 11.0535 7.75728 10.9617 7.49993 10.9617C7.24258 10.9617 7.02239 11.0535 6.83937 11.2371C6.65575 11.4207 6.56395 11.6412 6.56395 11.8986C6.56395 12.1559 6.65575 12.3761 6.83937 12.5591C7.02298 12.7427 7.24346 12.8345 7.50081 12.8345C7.75816 12.8345 7.97834 12.7427 8.16137 12.5591ZM4.19536 8.59313C4.37898 8.40952 4.47078 8.18904 4.47078 7.93169C4.47078 7.67434 4.37898 7.45415 4.19536 7.27113C4.01175 7.08752 3.79127 6.99571 3.53392 6.99571C3.27657 6.99571 3.05639 7.08752 2.87336 7.27113C2.68975 7.45474 2.59795 7.67522 2.59795 7.93257C2.59795 8.18992 2.68975 8.41011 2.87336 8.59313C3.05697 8.77674 3.27745 8.86855 3.5348 8.86855C3.79215 8.86855 4.01234 8.77674 4.19536 8.59313ZM8.16137 8.59313C8.34498 8.40952 8.43678 8.18904 8.43678 7.93169C8.43678 7.67434 8.34498 7.45415 8.16137 7.27113C7.97776 7.08752 7.75728 6.99571 7.49993 6.99571C7.24258 6.99571 7.02239 7.08752 6.83937 7.27113C6.65575 7.45474 6.56395 7.67522 6.56395 7.93257C6.56395 8.18992 6.65575 8.41011 6.83937 8.59313C7.02298 8.77674 7.24346 8.86855 7.50081 8.86855C7.75816 8.86855 7.97834 8.77674 8.16137 8.59313ZM12.1274 8.59313C12.311 8.40952 12.4028 8.18904 12.4028 7.93169C12.4028 7.67434 12.311 7.45415 12.1274 7.27113C11.9438 7.08752 11.7233 6.99571 11.4659 6.99571C11.2086 6.99571 10.9884 7.08752 10.8054 7.27113C10.6218 7.45474 10.53 7.67522 10.53 7.93257C10.53 8.18992 10.6218 8.41011 10.8054 8.59313C10.989 8.77674 11.2095 8.86855 11.4668 8.86855C11.7242 8.86855 11.9443 8.77674 12.1274 8.59313ZM8.16137 4.62713C8.34498 4.44352 8.43678 4.22304 8.43678 3.96569C8.43678 3.70834 8.34498 3.48815 8.16137 3.30513C7.97776 3.12151 7.75727 3.02971 7.49993 3.02971C7.24258 3.02971 7.02239 3.12151 6.83937 3.30513C6.65575 3.48874 6.56395 3.70922 6.56395 3.96657C6.56395 4.22392 6.65575 4.4441 6.83937 4.62713C7.02298 4.81074 7.24346 4.90254 7.50081 4.90254C7.75816 4.90254 7.97834 4.81074 8.16137 4.62713ZM8.3817 14.9828C8.13933 15.2252 7.84541 15.3464 7.49993 15.3464C7.15444 15.3464 6.86081 15.2252 6.61903 14.9828L0.449695 8.81346C0.207328 8.5711 0.0861445 8.27717 0.0861445 7.93169C0.0861445 7.58621 0.207328 7.29257 0.449695 7.05079L6.61903 0.881458C6.8614 0.63909 7.15532 0.517907 7.50081 0.517907C7.84629 0.517907 8.13992 0.639091 8.3817 0.881458L14.551 7.0508C14.7934 7.29316 14.9146 7.58709 14.9146 7.93257C14.9146 8.27805 14.7934 8.57168 14.551 8.81346L8.3817 14.9828Z" fill="#F57F31"/>
</svg>
